<mxfile host="app.diagrams.net" agent="Mozilla/5.0 (Windows NT 10.0; Win64; x64) AppleWebKit/537.36 (KHTML, like Gecko) Chrome/127.0.0.0 Safari/537.36 Edg/127.0.0.0" version="24.7.6">
  <diagram name="第 1 页" id="4DEinsebGK1SEJxTR-22">
    <mxGraphModel dx="1116" dy="664" grid="1" gridSize="10" guides="1" tooltips="1" connect="1" arrows="1" fold="1" page="1" pageScale="1" pageWidth="827" pageHeight="1169" math="0" shadow="0">
      <root>
        <mxCell id="0" />
        <mxCell id="1" parent="0" />
        <mxCell id="AvF1YRvq-5hEBuZXP7KX-1" value="&lt;font style=&quot;font-size: 37px;&quot;&gt;MSPM0G3507&lt;/font&gt;" style="rounded=0;whiteSpace=wrap;html=1;fillColor=#f8cecc;strokeColor=#b85450;fontFamily=Times New Roman;" parent="1" vertex="1">
          <mxGeometry x="294" y="612.5" width="266" height="267.5" as="geometry" />
        </mxCell>
        <mxCell id="AvF1YRvq-5hEBuZXP7KX-2" value="wit_imu" style="rounded=0;whiteSpace=wrap;html=1;fontFamily=Times New Roman;fillColor=#fff2cc;strokeColor=#d6b656;" parent="1" vertex="1">
          <mxGeometry x="660" y="600" width="120" height="40" as="geometry" />
        </mxCell>
        <mxCell id="AvF1YRvq-5hEBuZXP7KX-3" value="Buzzer" style="rounded=0;whiteSpace=wrap;html=1;fillColor=#d0cee2;strokeColor=#56517e;fontFamily=Times New Roman;" parent="1" vertex="1">
          <mxGeometry x="50" y="813.5" width="120" height="40" as="geometry" />
        </mxCell>
        <mxCell id="AvF1YRvq-5hEBuZXP7KX-4" value="encoder_A" style="rounded=0;whiteSpace=wrap;html=1;fillColor=#d5e8d4;strokeColor=#82b366;fontFamily=Times New Roman;" parent="1" vertex="1">
          <mxGeometry x="660" y="713" width="120" height="40" as="geometry" />
        </mxCell>
        <mxCell id="AvF1YRvq-5hEBuZXP7KX-5" value="motor_A" style="rounded=0;whiteSpace=wrap;html=1;fillColor=#d5e8d4;strokeColor=#82b366;fontFamily=Times New Roman;" parent="1" vertex="1">
          <mxGeometry x="660" y="673" width="120" height="40" as="geometry" />
        </mxCell>
        <mxCell id="AvF1YRvq-5hEBuZXP7KX-9" value="LEDs" style="rounded=0;whiteSpace=wrap;html=1;fillColor=#d0cee2;strokeColor=#56517e;fontFamily=Times New Roman;" parent="1" vertex="1">
          <mxGeometry x="50" y="853.5" width="120" height="40" as="geometry" />
        </mxCell>
        <mxCell id="AvF1YRvq-5hEBuZXP7KX-15" value="Keys" style="swimlane;whiteSpace=wrap;html=1;fillColor=#dae8fc;strokeColor=#6c8ebf;fontFamily=Times New Roman;" parent="1" vertex="1">
          <mxGeometry x="50" y="612.5" width="200" height="201" as="geometry" />
        </mxCell>
        <mxCell id="AvF1YRvq-5hEBuZXP7KX-23" value="Key&lt;span style=&quot;background-color: initial;&quot;&gt;_1&lt;/span&gt;" style="rounded=0;whiteSpace=wrap;html=1;fillColor=#dae8fc;strokeColor=#6c8ebf;fontFamily=Times New Roman;" parent="AvF1YRvq-5hEBuZXP7KX-15" vertex="1">
          <mxGeometry x="40" y="30" width="120" height="40" as="geometry" />
        </mxCell>
        <mxCell id="AvF1YRvq-5hEBuZXP7KX-22" value="Key_2" style="rounded=0;whiteSpace=wrap;html=1;fillColor=#dae8fc;strokeColor=#6c8ebf;fontFamily=Times New Roman;" parent="AvF1YRvq-5hEBuZXP7KX-15" vertex="1">
          <mxGeometry x="40" y="70" width="120" height="40" as="geometry" />
        </mxCell>
        <mxCell id="AvF1YRvq-5hEBuZXP7KX-21" value="Key_3" style="rounded=0;whiteSpace=wrap;html=1;fillColor=#dae8fc;strokeColor=#6c8ebf;fontFamily=Times New Roman;" parent="AvF1YRvq-5hEBuZXP7KX-15" vertex="1">
          <mxGeometry x="40" y="110" width="120" height="40" as="geometry" />
        </mxCell>
        <mxCell id="AvF1YRvq-5hEBuZXP7KX-17" value="Key_4" style="rounded=0;whiteSpace=wrap;html=1;fillColor=#dae8fc;strokeColor=#6c8ebf;fontFamily=Times New Roman;" parent="AvF1YRvq-5hEBuZXP7KX-15" vertex="1">
          <mxGeometry x="40" y="150" width="120" height="40" as="geometry" />
        </mxCell>
        <mxCell id="AvF1YRvq-5hEBuZXP7KX-25" value="motor_B" style="rounded=0;whiteSpace=wrap;html=1;fillColor=#d5e8d4;strokeColor=#82b366;fontFamily=Times New Roman;" parent="1" vertex="1">
          <mxGeometry x="660" y="780" width="120" height="40" as="geometry" />
        </mxCell>
        <mxCell id="AvF1YRvq-5hEBuZXP7KX-26" value="encoder_B" style="rounded=0;whiteSpace=wrap;html=1;fillColor=#d5e8d4;strokeColor=#82b366;fontFamily=Times New Roman;" parent="1" vertex="1">
          <mxGeometry x="660" y="820" width="120" height="40" as="geometry" />
        </mxCell>
        <mxCell id="-wLM9KByDLUnrbMQMpqB-2" style="edgeStyle=orthogonalEdgeStyle;rounded=0;orthogonalLoop=1;jettySize=auto;html=1;entryX=0.996;entryY=0.036;entryDx=0;entryDy=0;entryPerimeter=0;fontFamily=Times New Roman;" parent="1" source="AvF1YRvq-5hEBuZXP7KX-2" target="AvF1YRvq-5hEBuZXP7KX-1" edge="1">
          <mxGeometry relative="1" as="geometry" />
        </mxCell>
        <mxCell id="-wLM9KByDLUnrbMQMpqB-3" value="UART0&lt;div&gt;RX-PA11&lt;/div&gt;&lt;div&gt;TX-PA10&lt;/div&gt;" style="edgeLabel;html=1;align=center;verticalAlign=middle;resizable=0;points=[];fontFamily=Times New Roman;" parent="-wLM9KByDLUnrbMQMpqB-2" vertex="1" connectable="0">
          <mxGeometry x="-0.0887" relative="1" as="geometry">
            <mxPoint as="offset" />
          </mxGeometry>
        </mxCell>
        <mxCell id="-wLM9KByDLUnrbMQMpqB-4" style="edgeStyle=orthogonalEdgeStyle;rounded=0;orthogonalLoop=1;jettySize=auto;html=1;entryX=1.007;entryY=0.303;entryDx=0;entryDy=0;entryPerimeter=0;fontFamily=Times New Roman;" parent="1" source="AvF1YRvq-5hEBuZXP7KX-5" target="AvF1YRvq-5hEBuZXP7KX-1" edge="1">
          <mxGeometry relative="1" as="geometry" />
        </mxCell>
        <mxCell id="-wLM9KByDLUnrbMQMpqB-5" value="pwma-PB4&lt;div&gt;AIN1-PA12&lt;/div&gt;&lt;div&gt;AIN2-PA13&lt;/div&gt;" style="edgeLabel;html=1;align=center;verticalAlign=middle;resizable=0;points=[];fontFamily=Times New Roman;" parent="-wLM9KByDLUnrbMQMpqB-4" vertex="1" connectable="0">
          <mxGeometry x="-0.0767" y="-2" relative="1" as="geometry">
            <mxPoint as="offset" />
          </mxGeometry>
        </mxCell>
        <mxCell id="-wLM9KByDLUnrbMQMpqB-6" style="edgeStyle=orthogonalEdgeStyle;rounded=0;orthogonalLoop=1;jettySize=auto;html=1;entryX=1.003;entryY=0.703;entryDx=0;entryDy=0;entryPerimeter=0;fontFamily=Times New Roman;" parent="1" source="AvF1YRvq-5hEBuZXP7KX-25" target="AvF1YRvq-5hEBuZXP7KX-1" edge="1">
          <mxGeometry relative="1" as="geometry" />
        </mxCell>
        <mxCell id="-wLM9KByDLUnrbMQMpqB-7" value="PWMB-PB1&lt;div&gt;BIN1-PA14&lt;/div&gt;&lt;div&gt;BIN2-PA18&lt;/div&gt;" style="edgeLabel;html=1;align=center;verticalAlign=middle;resizable=0;points=[];fontFamily=Times New Roman;" parent="-wLM9KByDLUnrbMQMpqB-6" vertex="1" connectable="0">
          <mxGeometry x="0.0017" y="-4" relative="1" as="geometry">
            <mxPoint x="3" y="-4" as="offset" />
          </mxGeometry>
        </mxCell>
        <mxCell id="-wLM9KByDLUnrbMQMpqB-8" style="edgeStyle=orthogonalEdgeStyle;rounded=0;orthogonalLoop=1;jettySize=auto;html=1;entryX=0.988;entryY=0.453;entryDx=0;entryDy=0;entryPerimeter=0;fontFamily=Times New Roman;" parent="1" source="AvF1YRvq-5hEBuZXP7KX-4" target="AvF1YRvq-5hEBuZXP7KX-1" edge="1">
          <mxGeometry relative="1" as="geometry" />
        </mxCell>
        <mxCell id="-wLM9KByDLUnrbMQMpqB-11" value="E1A-PA15&lt;div&gt;E1B-PA16&lt;/div&gt;" style="edgeLabel;html=1;align=center;verticalAlign=middle;resizable=0;points=[];fontFamily=Times New Roman;" parent="-wLM9KByDLUnrbMQMpqB-8" vertex="1" connectable="0">
          <mxGeometry x="0.0006" relative="1" as="geometry">
            <mxPoint as="offset" />
          </mxGeometry>
        </mxCell>
        <mxCell id="-wLM9KByDLUnrbMQMpqB-10" style="edgeStyle=orthogonalEdgeStyle;rounded=0;orthogonalLoop=1;jettySize=auto;html=1;entryX=1.013;entryY=0.852;entryDx=0;entryDy=0;entryPerimeter=0;fontFamily=Times New Roman;" parent="1" source="AvF1YRvq-5hEBuZXP7KX-26" target="AvF1YRvq-5hEBuZXP7KX-1" edge="1">
          <mxGeometry relative="1" as="geometry" />
        </mxCell>
        <mxCell id="-wLM9KByDLUnrbMQMpqB-12" value="E2A-PA17&lt;div&gt;E2B-PA22&lt;br&gt;&lt;/div&gt;" style="edgeLabel;html=1;align=center;verticalAlign=middle;resizable=0;points=[];fontFamily=Times New Roman;" parent="-wLM9KByDLUnrbMQMpqB-10" vertex="1" connectable="0">
          <mxGeometry x="0.0781" y="1" relative="1" as="geometry">
            <mxPoint as="offset" />
          </mxGeometry>
        </mxCell>
        <mxCell id="-wLM9KByDLUnrbMQMpqB-15" style="edgeStyle=orthogonalEdgeStyle;rounded=0;orthogonalLoop=1;jettySize=auto;html=1;entryX=0.008;entryY=0.19;entryDx=0;entryDy=0;entryPerimeter=0;fontFamily=Times New Roman;" parent="1" edge="1">
          <mxGeometry relative="1" as="geometry">
            <mxPoint x="211" y="662.4857142857143" as="sourcePoint" />
            <mxPoint x="297.12799999999993" y="663.325" as="targetPoint" />
          </mxGeometry>
        </mxCell>
        <mxCell id="-wLM9KByDLUnrbMQMpqB-19" value="PB6" style="edgeLabel;html=1;align=center;verticalAlign=middle;resizable=0;points=[];fontFamily=Times New Roman;" parent="-wLM9KByDLUnrbMQMpqB-15" vertex="1" connectable="0">
          <mxGeometry x="0.159" y="-2" relative="1" as="geometry">
            <mxPoint as="offset" />
          </mxGeometry>
        </mxCell>
        <mxCell id="-wLM9KByDLUnrbMQMpqB-16" style="edgeStyle=orthogonalEdgeStyle;rounded=0;orthogonalLoop=1;jettySize=auto;html=1;entryX=0.008;entryY=0.333;entryDx=0;entryDy=0;entryPerimeter=0;fontFamily=Times New Roman;" parent="1" source="AvF1YRvq-5hEBuZXP7KX-22" target="AvF1YRvq-5hEBuZXP7KX-1" edge="1">
          <mxGeometry relative="1" as="geometry" />
        </mxCell>
        <mxCell id="-wLM9KByDLUnrbMQMpqB-20" value="PB7" style="edgeLabel;html=1;align=center;verticalAlign=middle;resizable=0;points=[];fontFamily=Times New Roman;" parent="-wLM9KByDLUnrbMQMpqB-16" vertex="1" connectable="0">
          <mxGeometry x="-0.1104" y="-1" relative="1" as="geometry">
            <mxPoint as="offset" />
          </mxGeometry>
        </mxCell>
        <mxCell id="-wLM9KByDLUnrbMQMpqB-17" style="edgeStyle=orthogonalEdgeStyle;rounded=0;orthogonalLoop=1;jettySize=auto;html=1;entryX=0.004;entryY=0.487;entryDx=0;entryDy=0;entryPerimeter=0;fontFamily=Times New Roman;" parent="1" source="AvF1YRvq-5hEBuZXP7KX-21" target="AvF1YRvq-5hEBuZXP7KX-1" edge="1">
          <mxGeometry relative="1" as="geometry" />
        </mxCell>
        <mxCell id="-wLM9KByDLUnrbMQMpqB-21" value="PB8" style="edgeLabel;html=1;align=center;verticalAlign=middle;resizable=0;points=[];fontFamily=Times New Roman;" parent="-wLM9KByDLUnrbMQMpqB-17" vertex="1" connectable="0">
          <mxGeometry x="-0.1068" y="-3" relative="1" as="geometry">
            <mxPoint as="offset" />
          </mxGeometry>
        </mxCell>
        <mxCell id="-wLM9KByDLUnrbMQMpqB-18" style="edgeStyle=orthogonalEdgeStyle;rounded=0;orthogonalLoop=1;jettySize=auto;html=1;entryX=0.008;entryY=0.636;entryDx=0;entryDy=0;entryPerimeter=0;fontFamily=Times New Roman;" parent="1" source="AvF1YRvq-5hEBuZXP7KX-17" target="AvF1YRvq-5hEBuZXP7KX-1" edge="1">
          <mxGeometry relative="1" as="geometry" />
        </mxCell>
        <mxCell id="-wLM9KByDLUnrbMQMpqB-22" value="PB9" style="edgeLabel;html=1;align=center;verticalAlign=middle;resizable=0;points=[];fontFamily=Times New Roman;" parent="-wLM9KByDLUnrbMQMpqB-18" vertex="1" connectable="0">
          <mxGeometry x="-0.0043" relative="1" as="geometry">
            <mxPoint as="offset" />
          </mxGeometry>
        </mxCell>
        <mxCell id="-wLM9KByDLUnrbMQMpqB-24" style="edgeStyle=orthogonalEdgeStyle;rounded=0;orthogonalLoop=1;jettySize=auto;html=1;entryX=-0.007;entryY=0.976;entryDx=0;entryDy=0;entryPerimeter=0;fontFamily=Times New Roman;" parent="1" source="AvF1YRvq-5hEBuZXP7KX-9" target="AvF1YRvq-5hEBuZXP7KX-1" edge="1">
          <mxGeometry relative="1" as="geometry" />
        </mxCell>
        <mxCell id="shwtkvRa5aYrl7cdA0Yg-4" value="PA0" style="edgeLabel;html=1;align=center;verticalAlign=middle;resizable=0;points=[];fontFamily=Times New Roman;" parent="-wLM9KByDLUnrbMQMpqB-24" vertex="1" connectable="0">
          <mxGeometry x="-0.1606" relative="1" as="geometry">
            <mxPoint x="1" as="offset" />
          </mxGeometry>
        </mxCell>
        <mxCell id="shwtkvRa5aYrl7cdA0Yg-2" style="edgeStyle=orthogonalEdgeStyle;rounded=0;orthogonalLoop=1;jettySize=auto;html=1;entryX=0.006;entryY=0.826;entryDx=0;entryDy=0;entryPerimeter=0;fontFamily=Times New Roman;" parent="1" source="AvF1YRvq-5hEBuZXP7KX-3" target="AvF1YRvq-5hEBuZXP7KX-1" edge="1">
          <mxGeometry relative="1" as="geometry" />
        </mxCell>
        <mxCell id="shwtkvRa5aYrl7cdA0Yg-3" value="PA1" style="edgeLabel;html=1;align=center;verticalAlign=middle;resizable=0;points=[];fontFamily=Times New Roman;" parent="shwtkvRa5aYrl7cdA0Yg-2" vertex="1" connectable="0">
          <mxGeometry x="-0.1105" y="2" relative="1" as="geometry">
            <mxPoint as="offset" />
          </mxGeometry>
        </mxCell>
      </root>
    </mxGraphModel>
  </diagram>
</mxfile>
